<svg width="478" height="74" viewBox="0 0 478 74" fill="none" xmlns="http://www.w3.org/2000/svg">
<path d="M103.08 54.1412V18.1645H118.304C122.152 18.1645 125.554 18.9215 128.497 20.4235C131.44 21.9256 133.72 24.0404 135.361 26.7441C136.989 29.4478 137.81 32.584 137.81 36.1528C137.81 39.7217 136.989 42.8459 135.361 45.5616C133.732 48.2653 131.44 50.3801 128.497 51.8822C125.554 53.3842 122.164 54.1412 118.304 54.1412H103.08ZM108.243 49.6712H117.99C120.982 49.6712 123.575 49.1064 125.759 47.9769C127.942 46.8474 129.631 45.2612 130.837 43.2184C132.043 41.1757 132.647 38.8205 132.647 36.1528C132.647 33.4492 132.043 31.082 130.837 29.0632C129.631 27.0445 127.942 25.4704 125.759 24.3408C123.575 23.2113 120.982 22.6465 117.99 22.6465H108.243V49.6712Z" fill="#272D47"/>
<path d="M150.958 54.4416C148.932 54.4416 147.146 54.0932 145.614 53.4082C144.082 52.7233 142.9 51.774 142.08 50.5604C141.26 49.3467 140.837 47.9649 140.837 46.4268C140.837 44.9488 141.187 43.615 141.899 42.4133C142.599 41.2117 143.757 40.2504 145.361 39.5414C146.965 38.8325 149.113 38.46 151.839 38.46H160.5V42.0048H152.044C149.571 42.0048 147.894 42.4133 147.038 43.2425C146.181 44.0596 145.747 45.0569 145.747 46.2225C145.747 47.5563 146.278 48.6258 147.351 49.4309C148.413 50.2359 149.897 50.6325 151.791 50.6325C153.648 50.6325 155.277 50.2239 156.664 49.3948C158.051 48.5777 159.065 47.3761 159.68 45.8019L160.657 49.1905C160.006 50.8007 158.847 52.0744 157.195 53.0237C155.542 53.973 153.467 54.4416 150.958 54.4416ZM159.933 54.1412V48.3854L159.68 47.304V37.4867C159.68 35.3958 159.065 33.7736 157.846 32.6321C156.628 31.4905 154.794 30.9138 152.358 30.9138C150.741 30.9138 149.161 31.1781 147.617 31.7068C146.073 32.2355 144.758 32.9445 143.696 33.8337L141.634 30.1327C143.045 29.0032 144.734 28.138 146.712 27.5372C148.69 26.9364 150.765 26.636 152.925 26.636C156.676 26.636 159.559 27.5492 161.586 29.3637C163.612 31.1781 164.626 33.9539 164.626 37.6909V54.1412H159.933Z" fill="#272D47"/>
<path d="M171.116 54.1412V16.0015H176.073V54.1292H171.116V54.1412Z" fill="#272D47"/>
<path d="M182.684 54.1412V16.0015H187.642V54.1292H182.684V54.1412Z" fill="#272D47"/>
<path d="M196.291 64.4152C194.988 64.4152 193.71 64.1989 192.467 63.7783C191.225 63.3457 190.163 62.7209 189.27 61.9038L191.381 58.2027C192.069 58.8516 192.829 59.3563 193.649 59.6928C194.47 60.0412 195.35 60.2095 196.279 60.2095C197.485 60.2095 198.474 59.897 199.271 59.2842C200.067 58.6714 200.803 57.5659 201.49 55.9917L203.191 52.2427L203.71 51.6298L214.446 26.9123H219.295L206.038 56.8689C205.242 58.7915 204.361 60.2936 203.384 61.3871C202.407 62.4805 201.333 63.2616 200.163 63.7302C198.993 64.1989 197.702 64.4152 196.291 64.4152ZM202.793 55.0064L190.308 26.9003H195.471L206.098 51.1612L202.793 55.0064Z" fill="#272D47"/>
<path d="M231.165 54.3936C229.271 54.3936 227.583 54.0812 226.111 53.4683C224.627 52.8555 223.481 51.9663 222.649 50.8248C221.828 49.6712 221.406 48.3854 221.406 46.9435C221.406 45.2011 222.021 43.5909 223.264 42.137C224.506 40.683 226.666 39.1329 229.766 37.4867C231.551 36.5254 232.951 35.6842 233.976 34.9632C234.989 34.2423 235.713 33.5453 236.147 32.8844C236.582 32.2115 236.787 31.4905 236.787 30.6975C236.787 29.5679 236.413 28.6547 235.653 27.9698C234.893 27.2848 233.783 26.9364 232.299 26.9364C230.755 26.9364 229.561 27.3089 228.716 28.0659C227.872 28.8229 227.45 29.8083 227.45 31.0459C227.45 31.8991 227.679 32.7402 228.149 33.5694C228.608 34.3865 229.573 35.54 231.008 37.018L246.642 52.9997L245.098 54.5979L228.897 38.0514C227.45 36.5494 226.473 35.2877 225.954 34.2783C225.435 33.269 225.182 32.1995 225.182 31.07C225.182 29.8323 225.471 28.7628 226.038 27.8616C226.605 26.9604 227.426 26.2514 228.511 25.7588C229.597 25.2661 230.864 25.0138 232.299 25.0138C234.326 25.0138 235.942 25.5185 237.148 26.5278C238.355 27.5372 238.958 28.9191 238.958 30.6614C238.958 31.6948 238.705 32.6441 238.21 33.5453C237.715 34.4345 236.871 35.3237 235.713 36.1889C234.543 37.0661 232.963 38.0274 230.972 39.0969C229.151 40.0942 227.727 41.0074 226.69 41.8486C225.652 42.6897 224.929 43.5068 224.494 44.2879C224.06 45.081 223.855 45.9341 223.855 46.8594C223.855 48.5056 224.531 49.8394 225.894 50.8728C227.257 51.9062 229.054 52.4109 231.286 52.4109C233.24 52.4109 235.013 52.0023 236.569 51.1732C238.138 50.3561 239.453 49.1064 240.514 47.4482C241.576 45.7899 242.372 43.7351 242.89 41.3078L244.905 41.8726C244.314 44.6123 243.397 46.9195 242.118 48.782C240.84 50.6445 239.284 52.0504 237.45 52.9997C235.592 53.925 233.505 54.3936 231.165 54.3936Z" fill="#672F8F"/>
<path d="M258.862 54.1412L246.799 18.1645H252.119L263.205 51.3655H260.527L272.035 18.1645H276.775L288.018 51.3655H285.437L296.679 18.1645H301.577L289.502 54.1412H284.086L273.567 23.3555H274.954L264.375 54.1412H258.862Z" fill="#272D47"/>
<path d="M315.932 54.4416C313.013 54.4416 310.443 53.8408 308.224 52.6392C306.004 51.4376 304.291 49.7913 303.061 47.7005C301.842 45.6097 301.227 43.2184 301.227 40.5027C301.227 37.7991 301.818 35.3958 303.013 33.305C304.195 31.2142 305.835 29.5799 307.91 28.4023C309.985 27.2248 312.337 26.6239 314.955 26.6239C317.597 26.6239 319.937 27.2007 321.976 28.3663C324.014 29.5319 325.594 31.1661 326.753 33.2689C327.911 35.3718 328.478 37.8351 328.478 40.6469C328.478 40.8512 328.465 41.0915 328.453 41.3679C328.441 41.6443 328.405 41.8966 328.381 42.137H305.111V38.5922H325.8L323.785 39.8298C323.821 38.0875 323.459 36.5254 322.699 35.1555C321.939 33.7856 320.902 32.7162 319.575 31.9471C318.248 31.1781 316.716 30.7936 314.955 30.7936C313.23 30.7936 311.71 31.1781 310.359 31.9471C309.02 32.7162 307.97 33.7977 307.21 35.1795C306.45 36.5614 306.077 38.1476 306.077 39.938V40.7551C306.077 42.5696 306.499 44.1917 307.343 45.6097C308.188 47.0276 309.358 48.1331 310.878 48.9262C312.385 49.7192 314.123 50.1038 316.089 50.1038C317.705 50.1038 319.177 49.8274 320.504 49.2867C321.831 48.7339 322.989 47.9168 323.99 46.8233L326.728 50.0076C325.486 51.4496 323.954 52.5431 322.108 53.3001C320.263 54.0691 318.2 54.4416 315.932 54.4416Z" fill="#272D47"/>
<path d="M332.929 54.1412V16.0015H337.887V34.1461L337.368 40.4667L337.682 46.7873V54.1412H332.929ZM347.428 54.4416C345.088 54.4416 342.989 53.9249 341.107 52.8795C339.238 51.8341 337.754 50.284 336.668 48.2292C335.583 46.1744 335.04 43.603 335.04 40.5148C335.04 37.4266 335.595 34.8671 336.717 32.8003C337.838 30.7335 339.334 29.2074 341.204 28.174C343.074 27.1527 345.149 26.636 347.416 26.636C350.094 26.636 352.471 27.2127 354.534 28.3783C356.596 29.5439 358.225 31.1661 359.431 33.2329C360.637 35.3117 361.241 37.727 361.241 40.5028C361.241 43.2785 360.637 45.7058 359.431 47.7966C358.225 49.8875 356.596 51.5097 354.534 52.6752C352.483 53.8649 350.106 54.4416 347.428 54.4416ZM347.018 50.1278C348.767 50.1278 350.348 49.7313 351.735 48.9502C353.122 48.1571 354.232 47.0396 355.04 45.5856C355.848 44.1317 356.247 42.4374 356.247 40.5268C356.247 38.5802 355.836 36.8858 355.04 35.4679C354.232 34.05 353.134 32.9445 351.735 32.1514C350.348 31.3584 348.767 30.9738 347.018 30.9738C345.293 30.9738 343.737 31.3704 342.35 32.1514C340.951 32.9445 339.853 34.05 339.045 35.4679C338.236 36.8858 337.838 38.5802 337.838 40.5268C337.838 42.4494 338.236 44.1317 339.045 45.5856C339.853 47.0396 340.951 48.1691 342.35 48.9502C343.737 49.7313 345.293 50.1278 347.018 50.1278Z" fill="#272D47"/>
<path d="M365.909 54.1412V16.0015H370.867V34.1461L370.348 40.4667L370.662 46.7873V54.1412H365.909ZM380.409 54.4416C378.068 54.4416 375.957 53.9249 374.088 52.8795C372.218 51.8341 370.734 50.284 369.648 48.2292C368.563 46.1744 368.02 43.603 368.02 40.5148C368.02 37.4266 368.575 34.8671 369.697 32.8003C370.819 30.7455 372.314 29.2074 374.184 28.174C376.054 27.1527 378.129 26.636 380.397 26.636C383.075 26.636 385.451 27.2127 387.514 28.3783C389.577 29.5439 391.205 31.1661 392.411 33.2329C393.618 35.3117 394.221 37.727 394.221 40.5028C394.221 43.2785 393.618 45.7058 392.411 47.7966C391.205 49.8875 389.577 51.5097 387.514 52.6752C385.463 53.8649 383.087 54.4416 380.409 54.4416ZM379.999 50.1278C381.748 50.1278 383.328 49.7313 384.715 48.9502C386.114 48.1571 387.212 47.0396 388.02 45.5856C388.829 44.1317 389.227 42.4374 389.227 40.5268C389.227 38.5802 388.829 36.8858 388.02 35.4679C387.212 34.05 386.114 32.9445 384.715 32.1514C383.328 31.3584 381.748 30.9738 379.999 30.9738C378.274 30.9738 376.729 31.3704 375.33 32.1514C373.943 32.9445 372.833 34.05 372.025 35.4679C371.217 36.8858 370.819 38.5802 370.819 40.5268C370.819 42.4494 371.217 44.1317 372.025 45.5856C372.833 47.0396 373.931 48.1691 375.33 48.9502C376.717 49.7313 378.274 50.1278 379.999 50.1278Z" fill="#272D47"/>
<path d="M15.4303 46.1985V28.4264H23.2351C25.1772 28.4264 26.8781 28.7989 28.3377 29.5439C29.7973 30.2889 30.9433 31.3223 31.7516 32.6441C32.5598 33.9659 32.9699 35.528 32.9699 37.3184C32.9699 39.0969 32.5598 40.647 31.7516 41.9808C30.9313 43.3146 29.7973 44.348 28.3377 45.093C26.8781 45.838 25.1772 46.2105 23.2351 46.2105H15.4303V46.1985ZM18.7476 43.4107H23.0782C24.4172 43.4107 25.5753 43.1584 26.5524 42.6537C27.5295 42.149 28.2895 41.44 28.8202 40.5148C29.351 39.6015 29.6285 38.5321 29.6285 37.3184C29.6285 36.0808 29.3631 35.0113 28.8202 34.1101C28.2895 33.2089 27.5295 32.4999 26.5524 31.9952C25.5753 31.4905 24.4172 31.2382 23.0782 31.2382H18.7476V43.4107Z" fill="#272D47"/>
<path d="M39.8458 46.1985L33.9349 28.4264H37.3729L42.6444 44.5042H40.9315L46.4081 28.4264H49.4721L54.8039 44.5042H53.1513L58.5555 28.4264H61.716L55.8052 46.1985H52.2828L47.4093 31.6948H48.3261L43.3803 46.1985H39.8458Z" fill="#272D47"/>
<path d="M37.2523 71.0001C18.4219 71.0001 3.10193 55.7394 3.10193 36.982C3.10193 18.2246 18.4219 2.96387 37.2523 2.96387C56.0827 2.96387 71.4027 18.2246 71.4027 36.982C71.4027 55.7394 56.0827 71.0001 37.2523 71.0001ZM37.2523 4.89849C19.4956 4.89849 5.05613 19.282 5.05613 36.97C5.05613 54.6579 19.4956 69.0414 37.2523 69.0414C55.009 69.0414 69.4485 54.6579 69.4485 36.97C69.4485 19.294 55.009 4.89849 37.2523 4.89849Z" fill="#272D47"/>
<path d="M37.2523 73.5115C17.0227 73.5115 0.568726 57.1213 0.568726 36.97C0.568726 16.8186 17.0227 0.428436 37.2523 0.428436C57.482 0.428436 73.9359 16.8186 73.9359 36.97C73.9359 57.1213 57.482 73.5115 37.2523 73.5115ZM37.2523 1.08933C17.3846 1.08933 1.22013 17.1912 1.22013 36.982C1.22013 56.7728 17.3846 72.8746 37.2523 72.8746C57.1201 72.8746 73.2845 56.7728 73.2845 36.982C73.2845 17.1912 57.1201 1.08933 37.2523 1.08933Z" fill="#672F8F"/>
<path d="M404.04 53.6726V30.8056H412.267C414.185 30.8056 415.838 31.106 417.213 31.7189C418.588 32.3317 419.65 33.2089 420.397 34.3504C421.145 35.492 421.507 36.8859 421.507 38.5081C421.507 40.0942 421.133 41.4641 420.397 42.6176C419.65 43.7712 418.6 44.6484 417.213 45.2612C415.826 45.874 414.185 46.1745 412.267 46.1745H404.957L405.717 45.3934V53.6606H404.04V53.6726ZM405.717 45.5015L404.957 44.6844H412.267C414.74 44.6844 416.61 44.1437 417.888 43.0622C419.167 41.9808 419.806 40.4667 419.806 38.5081C419.806 36.5254 419.167 34.9993 417.888 33.9178C416.61 32.8364 414.74 32.2956 412.267 32.2956H404.957L405.717 31.4785V45.5015Z" fill="#808080"/>
<path d="M425.56 53.6726V30.8056H427.237V52.1586H440.446V53.6606H425.56V53.6726Z" fill="#808080"/>
<path d="M443.378 53.6726V30.8056H445.054V52.1586H458.263V53.6606H443.378V53.6726Z" fill="#808080"/>
<path d="M469.784 53.8288C468.083 53.8288 466.502 53.5404 465.043 52.9637C463.583 52.3869 462.329 51.5698 461.255 50.5243C460.181 49.4789 459.349 48.2533 458.758 46.8474C458.167 45.4415 457.877 43.9034 457.877 42.2331C457.877 40.5508 458.167 39.0127 458.758 37.6068C459.349 36.2009 460.181 34.9753 461.267 33.9298C462.353 32.8844 463.607 32.0793 465.055 31.4905C466.502 30.9138 468.071 30.6254 469.771 30.6254C471.388 30.6254 472.908 30.8897 474.307 31.4064C475.719 31.9231 476.925 32.7282 477.926 33.7857L476.877 34.8671C475.887 33.9058 474.802 33.2209 473.62 32.7883C472.425 32.3677 471.171 32.1514 469.832 32.1514C468.372 32.1514 467.009 32.4038 465.754 32.8964C464.5 33.4011 463.402 34.1101 462.473 35.0233C461.544 35.9366 460.821 37.006 460.314 38.2197C459.795 39.4453 459.542 40.7671 459.542 42.2091C459.542 43.651 459.795 44.9728 460.314 46.1985C460.833 47.4241 461.544 48.4816 462.473 49.3948C463.402 50.3081 464.5 51.017 465.754 51.5217C467.009 52.0264 468.372 52.2667 469.832 52.2667C471.159 52.2667 472.425 52.0504 473.62 51.6298C474.814 51.2093 475.899 50.5003 476.877 49.527L477.926 50.6085C476.925 51.6779 475.719 52.471 474.307 53.0117C472.92 53.5645 471.4 53.8288 469.784 53.8288Z" fill="#808080"/>
</svg>
