<?xml version="1.0" encoding="utf-8"?>
<!-- Generator: Adobe Illustrator 27.3.1, SVG Export Plug-In . SVG Version: 6.00 Build 0)  -->
<svg version="1.1" id="Layer_1" xmlns="http://www.w3.org/2000/svg" xmlns:xlink="http://www.w3.org/1999/xlink" x="0px" y="0px"
	 viewBox="0 0 525.77 181.95" style="enable-background:new 0 0 525.77 181.95;" xml:space="preserve">
<style type="text/css">
	.st0{fill:#FFFFFF;}
</style>
<g>
	<g>
		<path class="st0" d="M149.86,105.24V75.3h12.62c3.19,0,6.01,0.63,8.45,1.88c2.44,1.25,4.33,3.01,5.69,5.26
			c1.35,2.25,2.03,4.86,2.03,7.83c0,2.97-0.68,5.57-2.03,7.83c-1.35,2.25-3.25,4.01-5.69,5.26c-2.44,1.25-5.25,1.88-8.45,1.88
			H149.86z M154.14,101.52h8.08c2.48,0,4.63-0.47,6.44-1.41c1.81-0.94,3.21-2.26,4.21-3.96c1-1.7,1.5-3.66,1.5-5.88
			c0-2.25-0.5-4.22-1.5-5.9c-1-1.68-2.4-2.99-4.21-3.93c-1.81-0.94-3.96-1.41-6.44-1.41h-8.08V101.52z"/>
		<path class="st0" d="M189.55,105.49c-1.68,0-3.16-0.29-4.43-0.86c-1.27-0.57-2.25-1.36-2.93-2.37c-0.68-1.01-1.03-2.16-1.03-3.44
			c0-1.23,0.29-2.34,0.88-3.34c0.58-1,1.54-1.8,2.87-2.39s3.11-0.9,5.37-0.9h7.18v2.95h-7.01c-2.05,0-3.44,0.34-4.15,1.03
			c-0.71,0.68-1.07,1.51-1.07,2.48c0,1.11,0.44,2,1.33,2.67c0.88,0.67,2.11,1,3.68,1c1.54,0,2.89-0.34,4.04-1.03
			c1.15-0.68,1.99-1.68,2.5-2.99l0.81,2.82c-0.54,1.34-1.5,2.4-2.87,3.19C193.35,105.1,191.63,105.49,189.55,105.49z M196.99,105.24
			v-4.79l-0.21-0.9v-8.17c0-1.74-0.51-3.09-1.52-4.04c-1.01-0.95-2.53-1.43-4.55-1.43c-1.34,0-2.65,0.22-3.93,0.66
			c-1.28,0.44-2.37,1.03-3.25,1.77l-1.71-3.08c1.17-0.94,2.57-1.66,4.21-2.16c1.64-0.5,3.36-0.75,5.15-0.75
			c3.11,0,5.5,0.76,7.18,2.27c1.68,1.51,2.52,3.82,2.52,6.93v13.69H196.99z"/>
		<path class="st0" d="M206.26,105.24V73.5h4.11v31.73H206.26z"/>
		<path class="st0" d="M215.85,105.24V73.5h4.11v31.73H215.85z"/>
		<path class="st0" d="M227.13,113.79c-1.08,0-2.14-0.18-3.17-0.53c-1.03-0.36-1.91-0.88-2.65-1.56l1.75-3.08
			c0.57,0.54,1.2,0.96,1.88,1.24c0.68,0.29,1.41,0.43,2.18,0.43c1,0,1.82-0.26,2.48-0.77c0.66-0.51,1.27-1.43,1.84-2.74l1.41-3.12
			l0.43-0.51l8.9-20.57h4.02l-10.99,24.93c-0.66,1.6-1.39,2.85-2.2,3.76s-1.7,1.56-2.67,1.95S228.3,113.79,227.13,113.79z
			 M232.52,105.96l-10.35-23.39h4.28l8.81,20.19L232.52,105.96z"/>
		<path class="st0" d="M256.04,105.45c-1.57,0-2.97-0.26-4.19-0.77c-1.23-0.51-2.18-1.25-2.87-2.2c-0.68-0.96-1.03-2.03-1.03-3.23
			c0-1.45,0.51-2.79,1.54-4c1.03-1.21,2.82-2.5,5.39-3.87c1.48-0.8,2.64-1.5,3.49-2.1c0.84-0.6,1.44-1.18,1.8-1.73
			c0.36-0.56,0.53-1.16,0.53-1.82c0-0.94-0.31-1.7-0.94-2.27c-0.63-0.57-1.55-0.86-2.78-0.86c-1.28,0-2.27,0.31-2.97,0.94
			c-0.7,0.63-1.05,1.45-1.05,2.48c0,0.71,0.19,1.41,0.58,2.1c0.38,0.68,1.18,1.64,2.37,2.87l12.96,13.3l-1.28,1.33l-13.43-13.77
			c-1.2-1.25-2.01-2.3-2.44-3.14c-0.43-0.84-0.64-1.73-0.64-2.67c0-1.03,0.24-1.92,0.71-2.67c0.47-0.75,1.15-1.34,2.05-1.75
			c0.9-0.41,1.95-0.62,3.14-0.62c1.68,0,3.02,0.42,4.02,1.26c1,0.84,1.5,1.99,1.5,3.44c0,0.86-0.21,1.65-0.62,2.4
			c-0.41,0.74-1.11,1.48-2.07,2.2c-0.97,0.73-2.28,1.53-3.93,2.42c-1.51,0.83-2.69,1.59-3.55,2.29s-1.46,1.38-1.82,2.03
			c-0.36,0.66-0.53,1.37-0.53,2.14c0,1.37,0.56,2.48,1.69,3.34c1.13,0.86,2.62,1.28,4.47,1.28c1.62,0,3.09-0.34,4.38-1.03
			c1.3-0.68,2.39-1.72,3.27-3.1s1.54-3.09,1.97-5.11l1.67,0.47c-0.49,2.28-1.25,4.2-2.31,5.75s-2.35,2.72-3.87,3.51
			C259.71,105.06,257.98,105.45,256.04,105.45z"/>
		<path class="st0" d="M279,105.24L269,75.3h4.41l9.19,27.63h-2.22l9.54-27.63h3.93l9.32,27.63h-2.14l9.32-27.63h4.06l-10.01,29.94
			h-4.49l-8.72-25.62h1.15l-8.77,25.62H279z"/>
		<path class="st0" d="M326.31,105.49c-2.42,0-4.55-0.5-6.39-1.5s-3.26-2.37-4.28-4.11c-1.01-1.74-1.52-3.73-1.52-5.99
			c0-2.25,0.49-4.25,1.48-5.99c0.98-1.74,2.34-3.1,4.06-4.08c1.72-0.98,3.67-1.48,5.84-1.48c2.19,0,4.13,0.48,5.82,1.45
			s3,2.33,3.96,4.08s1.43,3.8,1.43,6.14c0,0.17-0.01,0.37-0.02,0.6c-0.01,0.23-0.04,0.44-0.06,0.64h-19.29v-2.95h17.15l-1.67,1.03
			c0.03-1.45-0.27-2.75-0.9-3.89c-0.63-1.14-1.49-2.03-2.59-2.67c-1.1-0.64-2.37-0.96-3.83-0.96c-1.43,0-2.69,0.32-3.81,0.96
			c-1.11,0.64-1.98,1.54-2.61,2.69c-0.63,1.15-0.94,2.47-0.94,3.96v0.68c0,1.51,0.35,2.86,1.05,4.04c0.7,1.18,1.67,2.1,2.93,2.76
			c1.25,0.66,2.69,0.98,4.32,0.98c1.34,0,2.56-0.23,3.66-0.68c1.1-0.46,2.06-1.14,2.89-2.05l2.27,2.65c-1.03,1.2-2.3,2.11-3.83,2.74
			C329.9,105.18,328.19,105.49,326.31,105.49z"/>
		<path class="st0" d="M340.4,105.24V73.5h4.11v15.1l-0.43,5.26l0.26,5.26v6.12H340.4z M352.42,105.49c-1.94,0-3.68-0.43-5.24-1.3
			c-1.55-0.87-2.78-2.16-3.68-3.87c-0.9-1.71-1.35-3.85-1.35-6.42c0-2.57,0.46-4.7,1.39-6.42s2.17-2.99,3.72-3.85
			c1.55-0.85,3.27-1.28,5.15-1.28c2.22,0,4.19,0.48,5.9,1.45c1.71,0.97,3.06,2.32,4.06,4.04c1,1.73,1.5,3.74,1.5,6.05
			s-0.5,4.33-1.5,6.07c-1,1.74-2.35,3.09-4.06,4.06C356.61,105.01,354.64,105.49,352.42,105.49z M352.08,101.9
			c1.45,0,2.76-0.33,3.91-0.98c1.15-0.66,2.07-1.59,2.74-2.8c0.67-1.21,1-2.62,1-4.21c0-1.62-0.34-3.03-1-4.21
			c-0.67-1.18-1.58-2.1-2.74-2.76c-1.15-0.66-2.46-0.98-3.91-0.98c-1.43,0-2.72,0.33-3.87,0.98c-1.16,0.66-2.07,1.58-2.74,2.76
			c-0.67,1.18-1,2.59-1,4.21c0,1.6,0.33,3,1,4.21c0.67,1.21,1.58,2.15,2.74,2.8C349.36,101.57,350.65,101.9,352.08,101.9z"/>
		<path class="st0" d="M367.74,105.24V73.5h4.11v15.1l-0.43,5.26l0.26,5.26v6.12H367.74z M379.76,105.49c-1.94,0-3.69-0.43-5.24-1.3
			c-1.55-0.87-2.78-2.16-3.68-3.87c-0.9-1.71-1.35-3.85-1.35-6.42c0-2.57,0.46-4.7,1.39-6.42c0.93-1.71,2.17-2.99,3.72-3.85
			c1.55-0.85,3.27-1.28,5.15-1.28c2.22,0,4.19,0.48,5.9,1.45s3.06,2.32,4.06,4.04c1,1.73,1.5,3.74,1.5,6.05s-0.5,4.33-1.5,6.07
			c-1,1.74-2.35,3.09-4.06,4.06C383.95,105.01,381.98,105.49,379.76,105.49z M379.42,101.9c1.45,0,2.76-0.33,3.91-0.98
			c1.16-0.66,2.07-1.59,2.74-2.8c0.67-1.21,1-2.62,1-4.21c0-1.62-0.33-3.03-1-4.21c-0.67-1.18-1.58-2.1-2.74-2.76
			c-1.15-0.66-2.46-0.98-3.91-0.98c-1.43,0-2.71,0.33-3.87,0.98c-1.15,0.66-2.07,1.58-2.74,2.76c-0.67,1.18-1,2.59-1,4.21
			c0,1.6,0.33,3,1,4.21c0.67,1.21,1.58,2.15,2.74,2.8C376.7,101.57,377.99,101.9,379.42,101.9z"/>
	</g>
	<g>
		<path class="st0" d="M77.2,98.63V83.84h6.47c1.61,0,3.02,0.31,4.23,0.93c1.21,0.62,2.16,1.48,2.83,2.58s1.01,2.4,1.01,3.89
			c0,1.48-0.34,2.77-1.01,3.88c-0.68,1.11-1.62,1.97-2.83,2.59c-1.21,0.62-2.62,0.93-4.23,0.93H77.2z M79.95,96.31h3.59
			c1.11,0,2.07-0.21,2.88-0.63c0.81-0.42,1.44-1.01,1.88-1.78c0.44-0.76,0.67-1.65,0.67-2.66c0-1.03-0.22-1.92-0.67-2.67
			c-0.44-0.75-1.07-1.34-1.88-1.76c-0.81-0.42-1.77-0.63-2.88-0.63h-3.59V96.31z"/>
		<path class="st0" d="M97.44,98.63l-4.9-14.79h2.85l4.37,13.38h-1.42l4.54-13.38h2.54l4.42,13.38h-1.37l4.48-13.38h2.62l-4.9,14.79
			h-2.92l-4.04-12.07h0.76l-4.1,12.07H97.44z"/>
	</g>
	<g>
		<path class="st0" d="M95.29,119.27c-15.61,0-28.31-12.7-28.31-28.31c0-15.61,12.7-28.31,28.31-28.31
			c15.61,0,28.31,12.7,28.31,28.31C123.6,106.57,110.9,119.27,95.29,119.27z M95.29,64.26c-14.72,0-26.69,11.97-26.69,26.69
			c0,14.72,11.97,26.69,26.69,26.69c14.72,0,26.69-11.97,26.69-26.69C121.98,76.24,110.01,64.26,95.29,64.26z"/>
	</g>
	<g>
		<path class="st0" d="M95.29,121.36c-16.77,0-30.41-13.64-30.41-30.41s13.64-30.41,30.41-30.41c16.77,0,30.41,13.64,30.41,30.41
			S112.06,121.36,95.29,121.36z M95.29,61.09c-16.47,0-29.87,13.4-29.87,29.87s13.4,29.87,29.87,29.87
			c16.47,0,29.87-13.4,29.87-29.87S111.76,61.09,95.29,61.09z"/>
	</g>
	<g>
		<path class="st0" d="M399.35,104.85V85.82h6.82c1.59,0,2.96,0.25,4.1,0.76c1.14,0.51,2.02,1.24,2.64,2.19s0.92,2.11,0.92,3.46
			c0,1.32-0.31,2.46-0.92,3.42c-0.62,0.96-1.49,1.69-2.64,2.2s-2.51,0.76-4.1,0.76h-6.06l0.63-0.65v6.88H399.35z M400.74,98.05
			l-0.63-0.68h6.06c2.05,0,3.6-0.45,4.66-1.35c1.06-0.9,1.59-2.16,1.59-3.79c0-1.65-0.53-2.92-1.59-3.82
			c-1.06-0.9-2.61-1.35-4.66-1.35h-6.06l0.63-0.68V98.05z"/>
		<path class="st0" d="M417.19,104.85V85.82h1.39v17.77h10.95v1.25H417.19z"/>
		<path class="st0" d="M431.96,104.85V85.82h1.39v17.77h10.95v1.25H431.96z"/>
		<path class="st0" d="M453.85,104.98c-1.41,0-2.72-0.24-3.93-0.72c-1.21-0.48-2.25-1.16-3.14-2.03c-0.89-0.87-1.58-1.89-2.07-3.06
			c-0.49-1.17-0.73-2.45-0.73-3.84c0-1.4,0.24-2.68,0.73-3.85c0.49-1.17,1.18-2.19,2.08-3.06c0.9-0.87,1.94-1.54,3.14-2.03
			c1.2-0.48,2.5-0.72,3.91-0.72c1.34,0,2.6,0.22,3.76,0.65c1.17,0.43,2.17,1.1,3,1.98l-0.87,0.9c-0.82-0.8-1.72-1.37-2.7-1.73
			c-0.99-0.35-2.03-0.53-3.14-0.53c-1.21,0-2.34,0.21-3.38,0.62c-1.04,0.42-1.95,1.01-2.72,1.77c-0.77,0.76-1.37,1.65-1.79,2.66
			c-0.43,1.02-0.64,2.12-0.64,3.32c0,1.2,0.21,2.3,0.64,3.32s1.02,1.9,1.79,2.66c0.77,0.76,1.68,1.35,2.72,1.77
			c1.04,0.42,2.17,0.62,3.38,0.62c1.1,0,2.15-0.18,3.14-0.53c0.99-0.35,1.89-0.94,2.7-1.75l0.87,0.9c-0.83,0.89-1.83,1.55-3,2
			C456.45,104.76,455.19,104.98,453.85,104.98z"/>
	</g>
</g>
</svg>
