<?xml version="1.0" encoding="utf-8"?>
<!-- Generator: Adobe Illustrator 27.3.1, SVG Export Plug-In . SVG Version: 6.00 Build 0)  -->
<svg version="1.1" id="Layer_1" xmlns="http://www.w3.org/2000/svg" xmlns:xlink="http://www.w3.org/1999/xlink" x="0px" y="0px"
	 viewBox="0 0 16 16" style="enable-background:new 0 0 16 16;" xml:space="preserve">
<style type="text/css">
	.st0{fill:#272D47;}
	.st1{fill:#672F8F;}
	.st2{fill:#FFFFFF;}
</style>
<g>
	<path class="st0" d="M7.8,13.9c-3.4,0-6.1-2.8-6.1-6.1c0-3.4,2.8-6.1,6.1-6.1c3.4,0,6.1,2.8,6.1,6.1C14,11.1,11.2,13.9,7.8,13.9z"
		/>
</g>
<g>
	<path class="st1" d="M7.8,14.3c-3.6,0-6.6-3-6.6-6.6s3-6.6,6.6-6.6s6.6,3,6.6,6.6S11.5,14.3,7.8,14.3z M7.8,1.2
		c-3.6,0-6.5,2.9-6.5,6.5s2.9,6.5,6.5,6.5s6.5-2.9,6.5-6.5S11.4,1.2,7.8,1.2z"/>
</g>
<g>
	<path class="st2" d="M3.3,9.3V5.7h1.6c0.4,0,0.7,0.1,1,0.2c0.3,0.1,0.5,0.4,0.7,0.6c0.2,0.3,0.2,0.6,0.2,0.9c0,0.4-0.1,0.7-0.2,0.9
		C6.4,8.7,6.2,8.9,5.9,9.1c-0.3,0.1-0.6,0.2-1,0.2H3.3z M4,8.7h0.9c0.3,0,0.5-0.1,0.7-0.2C5.7,8.5,5.9,8.3,6,8.2
		C6.1,8,6.2,7.8,6.2,7.5c0-0.2-0.1-0.5-0.2-0.6C5.9,6.7,5.7,6.6,5.5,6.4C5.3,6.3,5.1,6.3,4.8,6.3H4V8.7z"/>
	<path class="st2" d="M8.2,9.3L7,5.7h0.7L8.8,9H8.4l1.1-3.2h0.6L11.2,9h-0.3l1.1-3.2h0.6l-1.2,3.6h-0.7l-1-2.9h0.2l-1,2.9H8.2z"/>
</g>
</svg>
